<?xml version="1.0" encoding="UTF-8" standalone="no"?><!DOCTYPE svg PUBLIC "-//W3C//DTD SVG 1.1//EN" "http://www.w3.org/Graphics/SVG/1.1/DTD/svg11.dtd"><svg width="100%" height="100%" viewBox="0 0 600 600" version="1.1" xmlns="http://www.w3.org/2000/svg" xmlns:xlink="http://www.w3.org/1999/xlink" xml:space="preserve" xmlns:serif="http://www.serif.com/" style="fill-rule:evenodd;clip-rule:evenodd;stroke-linejoin:round;stroke-miterlimit:1.41421;"><g><circle cx="296.933" cy="298.476" r="259.144" style="fill:#48cfad;"/><path d="M548.322,361.597c-24.092,96.114 -101.921,171.011 -199.643,190.847l-160.989,-160.99l195.244,-195.244l165.388,165.387Z" style="fill:#3aab8f;"/></g><path d="M380.117,399.813c0,0 4.292,30.165 28.175,32.402c21.437,2.008 34.068,-28.988 29.584,-52.124c-2.905,-14.99 -2.38,-37.978 4.052,-52.124c4.823,-10.607 9.689,-14.202 16.824,-17.854c8.823,-4.516 28.43,-3.278 28.43,-3.278l4.227,22.54c0,0 -44.453,-14.12 -38.037,43.672c2.082,18.753 -0.525,32.273 -8.054,42.234c-3.546,4.691 -8.194,9.645 -15.875,15.525c-7.499,5.741 -15.765,8.959 -23.934,8.453c-18.335,-1.137 -45.115,-25.358 -45.115,-25.358l19.723,-14.088Z" style="fill:#4f5a69;"/><g><ellipse id="_-Ellipse-" serif:id="(Ellipse)" cx="293.806" cy="299.126" rx="141.185" ry="140.185" style="fill:#ebebeb;"/><ellipse cx="235.46" cy="232.61" rx="33.855" ry="33.616" style="fill:#4f5a69;"/><ellipse cx="327.149" cy="217.939" rx="33.855" ry="33.616" style="fill:#4f5a69;"/><ellipse cx="382.766" cy="283.901" rx="33.855" ry="33.616" style="fill:#4f5a69;"/><ellipse cx="354.131" cy="368.526" rx="33.855" ry="33.616" style="fill:#4f5a69;"/><ellipse cx="265.886" cy="383.716" rx="33.855" ry="33.616" style="fill:#4f5a69;"/><ellipse cx="206.06" cy="316.1" rx="33.855" ry="33.616" style="fill:#4f5a69;"/><ellipse cx="293.148" cy="299.177" rx="30.009" ry="29.796" style="fill:#4f5a69;"/><ellipse cx="293.148" cy="299.177" rx="18.301" ry="18.172" style="fill:#bfbfbf;"/></g></svg>